<svg width="281" height="177" viewBox="0 0 281 177" fill="none" xmlns="http://www.w3.org/2000/svg">
<rect x="39" y="17.8962" width="241.676" height="42.3896" rx="5" fill="white"/>
<ellipse cx="56.9231" cy="46.0212" rx="3.92308" ry="3.97872" fill="#004064"/>
<ellipse cx="68.7693" cy="46.0212" rx="3.92308" ry="3.97872" fill="#004064"/>
<ellipse cx="80.6155" cy="46.0212" rx="3.92308" ry="3.97872" fill="#004064"/>
<rect y="76" width="241.676" height="42.3896" rx="5" fill="white"/>
<ellipse cx="15.7286" cy="102.883" rx="3.72857" ry="3.88304" fill="#004064"/>
<ellipse cx="26.5001" cy="102.883" rx="3.72857" ry="3.88304" fill="#004064"/>
<ellipse cx="37.2714" cy="102.883" rx="3.72857" ry="3.88304" fill="#004064"/>
<rect x="24" y="134.468" width="241.676" height="42.3896" rx="5" fill="white"/>
<ellipse cx="44.7286" cy="161.256" rx="3.72857" ry="3.88304" fill="#004064"/>
<ellipse cx="55.5001" cy="161.256" rx="3.72857" ry="3.88304" fill="#004064"/>
<ellipse cx="66.2714" cy="161.256" rx="3.72857" ry="3.88304" fill="#004064"/>
<path fill-rule="evenodd" clip-rule="evenodd" d="M274.061 1.58194C272.279 -0.527312 269.389 -0.527312 267.607 1.58194L226.944 49.7038L216.41 37.2372C214.628 35.1279 211.738 35.1279 209.956 37.2372L205.387 42.6449C203.604 44.7541 203.604 48.1739 205.387 50.2832L223.741 72.0048C225.523 74.1141 228.413 74.1141 230.195 72.0048L234.765 66.5971C234.898 66.4392 235.022 66.274 235.135 66.1026L278.63 14.6279C280.413 12.5187 280.413 9.09891 278.63 6.98966L274.061 1.58194Z" fill="#22F101"/>
</svg>
